# xmcd
#
# Track frame offsets:
#	150
#	12322
#	19332
#	28237
#	39196
#	52424
#	60392
#	79833
#	91235
#	99212
#
# Disc length: 1492 seconds
#
# Revision: 1
# Processed by: cddbd v1.5.2PL0 Copyright (c) Steve Scherf et al.
# Submitted via: audiograbber 1.83.01
#
DISCID=7505d20a
DTITLE=Snöras - Heart of Weakness
DYEAR=2006
DGENRE=Screamo
TTITLE0=Exit, Exit
TTITLE1=She Swims Like A Dolphin
TTITLE2=The Weakness
TTITLE3=X Equals H
TTITLE4=I Thought We Were Martyrs
TTITLE5=Fall If You Want To Fall
TTITLE6=Dear Leonard
TTITLE7=C'est L'Amour
TTITLE8=Joseph, Maria and Romeo
TTITLE9=Enter The Arctic
EXTD=
EXTT0=
EXTT1=
EXTT2=
EXTT3=
EXTT4=
EXTT5=
EXTT6=
EXTT7=
EXTT8=
EXTT9=
PLAYORDER=
